<?xml version="1.0" encoding="UTF-8" standalone="no"?>
<!DOCTYPE svg PUBLIC "-//W3C//DTD SVG 1.1//EN" "http://www.w3.org/Graphics/SVG/1.1/DTD/svg11.dtd">
<svg version="1.1" xmlns="http://www.w3.org/2000/svg" xmlns:xlink="http://www.w3.org/1999/xlink" preserveAspectRatio="xMidYMid meet" viewBox="0 0 640 640" width="512" height="512"><defs><path d="M630.82 90.6L631.22 90.64L631.62 90.7L632.02 90.77L632.4 90.86L632.79 90.96L633.16 91.08L633.53 91.21L633.89 91.35L634.25 91.51L634.6 91.68L634.94 91.87L635.27 92.07L635.59 92.28L635.91 92.5L636.21 92.73L636.51 92.97L636.79 93.23L637.07 93.5L637.34 93.77L637.59 94.06L637.84 94.36L638.07 94.66L638.29 94.98L638.5 95.3L638.7 95.63L638.88 95.97L639.06 96.32L639.21 96.67L639.36 97.04L639.49 97.41L639.61 97.78L639.71 98.16L639.8 98.55L639.87 98.95L639.93 99.34L639.97 99.75L639.99 100.16L640 100.57L640 150.78L639.99 151.19L639.97 151.6L639.93 152L639.87 152.4L639.8 152.8L639.71 153.18L639.61 153.57L639.49 153.94L639.36 154.31L639.21 154.67L639.06 155.03L638.88 155.38L638.7 155.72L638.5 156.05L638.29 156.37L638.07 156.69L637.84 156.99L637.59 157.29L637.34 157.57L637.07 157.85L636.79 158.12L636.51 158.37L636.21 158.62L635.91 158.85L635.59 159.07L635.27 159.28L634.94 159.48L634.6 159.66L634.25 159.84L633.89 159.99L633.53 160.14L633.16 160.27L632.79 160.39L632.4 160.49L632.02 160.58L631.62 160.65L631.22 160.71L630.82 160.75L630.41 160.77L630 160.78L569.79 160.78L569.79 539.43L569.78 539.84L569.75 540.25L569.71 540.66L569.66 541.05L569.58 541.45L569.5 541.84L569.39 542.22L569.28 542.59L569.15 542.96L569 543.33L568.84 543.68L568.67 544.03L568.49 544.37L568.29 544.7L568.08 545.02L567.86 545.34L567.62 545.64L567.38 545.94L567.12 546.23L566.86 546.5L566.58 546.77L566.3 547.03L566 547.27L565.69 547.5L565.38 547.72L565.05 547.93L564.72 548.13L564.38 548.32L564.03 548.49L563.68 548.65L563.32 548.79L562.95 548.92L562.57 549.04L562.19 549.14L561.8 549.23L561.41 549.3L561.01 549.36L560.61 549.4L560.2 549.42L559.79 549.43L486.88 549.43L486.47 549.42L486.06 549.4L485.66 549.36L485.26 549.3L484.86 549.23L484.48 549.14L484.09 549.04L483.72 548.92L483.35 548.79L482.99 548.65L482.63 548.49L482.28 548.32L481.94 548.13L481.61 547.93L481.29 547.72L480.97 547.5L480.67 547.27L480.37 547.03L480.08 546.77L479.81 546.5L479.54 546.23L479.29 545.94L479.04 545.64L478.81 545.34L478.59 545.02L478.38 544.7L478.18 544.37L478 544.03L477.82 543.68L477.67 543.33L477.52 542.96L477.39 542.59L477.27 542.22L477.17 541.84L477.08 541.45L477.01 541.05L476.95 540.66L476.91 540.25L476.89 539.84L476.88 539.43L476.88 354.26L476.77 354.26L476.75 353.04L476.36 346.64L475.72 340.32L474.82 334.07L473.69 327.9L472.32 321.82L470.71 315.83L468.88 309.94L466.82 304.15L464.54 298.46L462.05 292.89L459.36 287.43L456.46 282.1L453.36 276.89L450.07 271.82L446.59 266.88L442.93 262.08L439.1 257.43L435.09 252.93L430.91 248.59L426.57 244.42L422.07 240.41L417.42 236.57L412.63 232.91L407.69 229.43L402.61 226.14L397.4 223.04L392.07 220.15L386.61 217.45L381.04 214.96L375.36 212.69L369.56 210.63L363.67 208.79L357.68 207.19L351.6 205.81L345.43 204.68L339.18 203.79L332.86 203.14L326.46 202.76L320 202.62L313.54 202.76L307.14 203.14L300.82 203.79L294.57 204.68L288.4 205.81L282.32 207.19L276.33 208.79L270.44 210.63L264.64 212.69L258.96 214.96L253.39 217.45L247.93 220.15L242.6 223.04L237.39 226.14L232.31 229.43L227.37 232.91L222.58 236.57L217.93 240.41L213.43 244.42L209.09 248.59L204.91 252.93L200.9 257.43L197.07 262.08L193.41 266.88L189.93 271.82L186.64 276.89L183.54 282.1L180.64 287.43L177.95 292.89L175.46 298.46L173.18 304.15L171.12 309.94L169.29 315.83L167.68 321.82L166.31 327.9L165.18 334.07L164.28 340.32L163.64 346.64L163.25 353.04L163.23 354.26L163.12 354.26L163.12 539.43L163.11 539.84L163.09 540.25L163.05 540.66L162.99 541.05L162.92 541.45L162.83 541.84L162.73 542.22L162.61 542.59L162.48 542.96L162.33 543.33L162.18 543.68L162 544.03L161.82 544.37L161.62 544.7L161.41 545.02L161.19 545.34L160.96 545.64L160.71 545.94L160.46 546.23L160.19 546.5L159.92 546.77L159.63 547.03L159.33 547.27L159.03 547.5L158.71 547.72L158.39 547.93L158.06 548.13L157.72 548.32L157.37 548.49L157.01 548.65L156.65 548.79L156.28 548.92L155.91 549.04L155.52 549.14L155.14 549.23L154.74 549.3L154.34 549.36L153.94 549.4L153.53 549.42L153.12 549.43L80.21 549.43L79.8 549.42L79.39 549.4L78.99 549.36L78.59 549.3L78.2 549.23L77.81 549.14L77.43 549.04L77.05 548.92L76.68 548.79L76.32 548.65L75.97 548.49L75.62 548.32L75.28 548.13L74.95 547.93L74.62 547.72L74.31 547.5L74 547.27L73.7 547.03L73.42 546.77L73.14 546.5L72.88 546.23L72.62 545.94L72.38 545.64L72.14 545.34L71.92 545.02L71.71 544.7L71.51 544.37L71.33 544.03L71.16 543.68L71 543.33L70.85 542.96L70.72 542.59L70.61 542.22L70.5 541.84L70.42 541.45L70.34 541.05L70.29 540.66L70.25 540.25L70.22 539.84L70.21 539.43L70.21 160.78L10 160.78L9.59 160.77L9.18 160.75L8.78 160.71L8.38 160.65L7.98 160.58L7.6 160.49L7.21 160.39L6.84 160.27L6.47 160.14L6.11 159.99L5.75 159.84L5.4 159.66L5.06 159.48L4.73 159.28L4.41 159.07L4.09 158.85L3.79 158.62L3.49 158.37L3.21 158.12L2.93 157.85L2.66 157.57L2.41 157.29L2.16 156.99L1.93 156.69L1.71 156.37L1.5 156.05L1.3 155.72L1.12 155.38L0.94 155.03L0.79 154.67L0.64 154.31L0.51 153.94L0.39 153.57L0.29 153.18L0.2 152.8L0.13 152.4L0.07 152L0.03 151.6L0.01 151.19L0 150.78L0 100.57L0.01 100.16L0.03 99.75L0.07 99.34L0.13 98.95L0.2 98.55L0.29 98.16L0.39 97.78L0.51 97.41L0.64 97.04L0.79 96.67L0.94 96.32L1.12 95.97L1.3 95.63L1.5 95.3L1.71 94.98L1.93 94.66L2.16 94.36L2.41 94.06L2.66 93.77L2.93 93.5L3.21 93.23L3.49 92.97L3.79 92.73L4.09 92.5L4.41 92.28L4.73 92.07L5.06 91.87L5.4 91.68L5.75 91.51L6.11 91.35L6.47 91.21L6.84 91.08L7.21 90.96L7.6 90.86L7.98 90.77L8.38 90.7L8.78 90.64L9.18 90.6L9.59 90.58L10 90.57L630 90.57L630.41 90.58L630.82 90.6Z" id="btXmmmCTY"></path><linearGradient id="gradientb1q7XEqjo6" gradientUnits="userSpaceOnUse" x1="15.04" y1="211.08" x2="630.64" y2="402.48"><stop style="stop-color: #b721ff;stop-opacity: 1" offset="0%"></stop><stop style="stop-color: #21d4fd;stop-opacity: 1" offset="100%"></stop></linearGradient></defs><g><g><g><use xlink:href="#btXmmmCTY" opacity="1" fill="url(#gradientb1q7XEqjo6)"></use></g></g></g></svg>