<?xml version="1.0" encoding="UTF-8" standalone="no"?>
<!DOCTYPE svg PUBLIC "-//W3C//DTD SVG 1.1//EN" "http://www.w3.org/Graphics/SVG/1.1/DTD/svg11.dtd">
<svg version="1.1" xmlns="http://www.w3.org/2000/svg" xmlns:xlink="http://www.w3.org/1999/xlink" preserveAspectRatio="xMidYMid meet" viewBox="0 0 512 512" width="512" height="512"><defs><path d="M504.98 60.13L505.3 60.18L505.61 60.23L505.92 60.3L506.23 60.39L506.53 60.48L506.82 60.58L507.11 60.7L507.4 60.83L507.68 60.96L507.95 61.11L508.21 61.27L508.47 61.44L508.72 61.61L508.97 61.8L509.21 62L509.44 62.2L509.66 62.41L509.87 62.64L510.07 62.86L510.27 63.1L510.46 63.35L510.63 63.6L510.8 63.86L510.96 64.12L511.11 64.39L511.24 64.67L511.37 64.96L511.49 65.25L511.59 65.54L511.69 65.84L511.77 66.15L511.84 66.46L511.9 66.77L511.94 67.09L511.97 67.41L511.99 67.74L512 68.07L512 103.82L511.99 104.15L511.97 104.47L511.94 104.79L511.9 105.11L511.84 105.43L511.77 105.74L511.69 106.04L511.59 106.34L511.49 106.64L511.37 106.93L511.24 107.21L511.11 107.49L510.96 107.76L510.8 108.03L510.63 108.29L510.46 108.54L510.27 108.78L510.07 109.02L509.87 109.25L509.66 109.47L509.44 109.69L509.21 109.89L508.97 110.09L508.72 110.27L508.47 110.45L508.21 110.62L507.95 110.77L507.68 110.92L507.4 111.06L507.11 111.19L506.82 111.3L506.53 111.41L506.23 111.5L505.92 111.58L505.61 111.65L505.3 111.71L504.98 111.76L504.66 111.79L504.33 111.81L504 111.82L460.26 111.82L460.26 443.39L460.25 443.72L460.23 444.05L460.2 444.37L460.15 444.69L460.09 445L460.02 445.31L459.94 445.62L459.85 445.92L459.74 446.21L459.63 446.5L459.5 446.79L459.36 447.07L459.21 447.34L459.06 447.6L458.89 447.86L458.71 448.11L458.53 448.36L458.33 448.6L458.13 448.83L457.91 449.05L457.69 449.26L457.46 449.46L457.22 449.66L456.98 449.85L456.73 450.02L456.47 450.19L456.2 450.35L455.93 450.5L455.65 450.63L455.37 450.76L455.08 450.88L454.78 450.98L454.48 451.08L454.18 451.16L453.87 451.23L453.55 451.29L453.23 451.33L452.91 451.36L452.59 451.38L452.26 451.39L416.51 451.39L416.18 451.38L415.85 451.36L415.53 451.33L415.21 451.29L414.9 451.23L414.59 451.16L414.28 451.08L413.98 450.98L413.69 450.88L413.4 450.76L413.11 450.63L412.83 450.5L412.56 450.35L412.3 450.19L412.04 450.02L411.79 449.85L411.54 449.66L411.3 449.46L411.08 449.26L410.85 449.05L410.64 448.83L410.44 448.6L410.24 448.36L410.05 448.11L409.88 447.86L409.71 447.6L409.55 447.34L409.4 447.07L409.27 446.79L409.14 446.5L409.02 446.21L408.92 445.92L408.82 445.62L408.74 445.31L408.67 445L408.62 444.69L408.57 444.37L408.54 444.05L408.52 443.72L408.51 443.39L408.51 262.91L408.48 262.91L408.38 258.07L408 251.85L407.38 245.71L406.51 239.63L405.41 233.63L404.08 227.72L402.51 221.9L400.73 216.17L398.73 210.54L396.52 205.01L394.1 199.6L391.48 194.29L388.66 189.11L385.65 184.04L382.45 179.11L379.07 174.31L375.51 169.65L371.78 165.13L367.88 160.75L363.82 156.53L359.6 152.47L355.23 148.57L350.71 144.84L346.05 141.29L341.25 137.91L336.31 134.71L331.25 131.7L326.06 128.88L320.76 126.26L315.34 123.84L309.81 121.62L304.18 119.62L298.45 117.84L292.63 116.28L286.72 114.94L280.72 113.84L274.65 112.98L268.5 112.35L262.28 111.97L256 111.84L249.72 111.97L243.5 112.35L237.35 112.98L231.28 113.84L225.28 114.94L219.37 116.28L213.55 117.84L207.82 119.62L202.19 121.62L196.66 123.84L191.24 126.26L185.94 128.88L180.75 131.7L175.69 134.71L170.75 137.91L165.95 141.29L161.29 144.84L156.77 148.57L152.4 152.47L148.18 156.53L144.12 160.75L140.22 165.13L136.49 169.65L132.93 174.31L129.55 179.11L126.35 184.04L123.34 189.11L120.52 194.29L117.9 199.6L115.48 205.01L113.27 210.54L111.27 216.17L109.49 221.9L107.92 227.72L106.59 233.63L105.49 239.63L104.62 245.71L104 251.85L103.62 258.07L103.52 262.91L103.49 262.91L103.49 443.39L103.48 443.72L103.46 444.05L103.43 444.37L103.38 444.69L103.33 445L103.26 445.31L103.18 445.62L103.08 445.92L102.98 446.21L102.86 446.5L102.73 446.79L102.6 447.07L102.45 447.34L102.29 447.6L102.12 447.86L101.95 448.11L101.76 448.36L101.56 448.6L101.36 448.83L101.15 449.05L100.92 449.26L100.7 449.46L100.46 449.66L100.21 449.85L99.96 450.02L99.7 450.19L99.44 450.35L99.17 450.5L98.89 450.63L98.6 450.76L98.31 450.88L98.02 450.98L97.72 451.08L97.41 451.16L97.1 451.23L96.79 451.29L96.47 451.33L96.15 451.36L95.82 451.38L95.49 451.39L59.74 451.39L59.41 451.38L59.09 451.36L58.77 451.33L58.45 451.29L58.13 451.23L57.82 451.16L57.52 451.08L57.22 450.98L56.92 450.88L56.63 450.76L56.35 450.63L56.07 450.5L55.8 450.35L55.53 450.19L55.27 450.02L55.02 449.85L54.78 449.66L54.54 449.46L54.31 449.26L54.09 449.05L53.87 448.83L53.67 448.6L53.47 448.36L53.29 448.11L53.11 447.86L52.94 447.6L52.79 447.34L52.64 447.07L52.5 446.79L52.37 446.5L52.26 446.21L52.15 445.92L52.06 445.62L51.98 445.31L51.91 445L51.85 444.69L51.8 444.37L51.77 444.05L51.75 443.72L51.74 443.39L51.74 111.82L8 111.82L7.67 111.81L7.34 111.79L7.02 111.76L6.7 111.71L6.39 111.65L6.08 111.58L5.77 111.5L5.47 111.41L5.18 111.3L4.89 111.19L4.6 111.06L4.32 110.92L4.05 110.77L3.79 110.62L3.53 110.45L3.28 110.27L3.03 110.09L2.79 109.89L2.56 109.69L2.34 109.47L2.13 109.25L1.93 109.02L1.73 108.78L1.54 108.54L1.37 108.29L1.2 108.03L1.04 107.76L0.89 107.49L0.76 107.21L0.63 106.93L0.51 106.64L0.41 106.34L0.31 106.04L0.23 105.74L0.16 105.43L0.1 105.11L0.06 104.79L0.03 104.47L0.01 104.15L0 103.82L0 68.07L0.01 67.74L0.03 67.41L0.06 67.09L0.1 66.77L0.16 66.46L0.23 66.15L0.31 65.84L0.41 65.54L0.51 65.25L0.63 64.96L0.76 64.67L0.89 64.39L1.04 64.12L1.2 63.86L1.37 63.6L1.54 63.35L1.73 63.1L1.93 62.86L2.13 62.64L2.34 62.41L2.56 62.2L2.79 62L3.03 61.8L3.28 61.61L3.53 61.44L3.79 61.27L4.05 61.11L4.32 60.96L4.6 60.83L4.89 60.7L5.18 60.58L5.47 60.48L5.77 60.39L6.08 60.3L6.39 60.23L6.7 60.18L7.02 60.13L7.34 60.1L7.67 60.08L8 60.07L504 60.07L504.33 60.08L504.66 60.1L504.66 60.1L504.98 60.13Z" id="dvYF4qthy"></path><linearGradient id="gradientb2dOyxoxm4" gradientUnits="userSpaceOnUse" x1="196.43" y1="134.33" x2="338.27" y2="387.97"><stop style="stop-color: #b721ff;stop-opacity: 1" offset="0%"></stop><stop style="stop-color: #21d4fd;stop-opacity: 1" offset="100%"></stop></linearGradient></defs><g><g><g><use xlink:href="#dvYF4qthy" opacity="1" fill="url(#gradientb2dOyxoxm4)"></use></g></g></g></svg>