<?xml version="1.0" encoding="UTF-8" standalone="no"?>
<!DOCTYPE svg PUBLIC "-//W3C//DTD SVG 1.1//EN" "http://www.w3.org/Graphics/SVG/1.1/DTD/svg11.dtd">
<svg version="1.1" xmlns="http://www.w3.org/2000/svg" xmlns:xlink="http://www.w3.org/1999/xlink" preserveAspectRatio="xMidYMid meet" viewBox="0 0 640 640" width="50" height="50"><defs><path d="M331.92 419.27L332.77 419.35L333.6 419.47L334.42 419.62L335.24 419.81L336.04 420.02L336.82 420.26L337.6 420.54L338.35 420.84L339.1 421.17L339.83 421.53L340.54 421.92L341.23 422.33L341.91 422.77L342.57 423.24L343.21 423.72L343.83 424.24L344.43 424.77L345.01 425.33L345.56 425.91L346.1 426.51L346.61 427.13L347.1 427.77L347.56 428.43L348 429.1L348.42 429.8L348.8 430.51L349.16 431.24L349.49 431.98L349.8 432.74L350.07 433.51L350.32 434.3L350.53 435.1L350.71 435.91L350.86 436.73L350.98 437.57L351.07 438.41L351.12 439.27L351.14 440.13L351.14 502.18L351.12 503.05L351.07 503.9L350.98 504.74L350.86 505.58L350.71 506.4L350.53 507.21L350.32 508.01L350.07 508.8L349.8 509.57L349.49 510.33L349.16 511.07L348.8 511.8L348.42 512.51L348 513.21L347.56 513.89L347.1 514.54L346.61 515.18L346.1 515.8L345.56 516.4L345.01 516.98L344.43 517.54L343.83 518.08L343.21 518.59L342.57 519.08L341.91 519.54L341.23 519.98L340.54 520.39L339.83 520.78L339.1 521.14L338.35 521.47L337.6 521.77L336.82 522.05L336.04 522.29L335.24 522.51L334.42 522.69L333.6 522.84L332.77 522.96L331.92 523.05L331.07 523.1L330.21 523.11L198.38 523.11L197.52 523.1L196.66 523.05L195.82 522.96L194.98 522.84L194.16 522.69L193.35 522.51L192.55 522.29L191.76 522.05L190.99 521.77L190.23 521.47L189.49 521.14L188.76 520.78L188.05 520.39L187.35 519.98L186.68 519.54L186.02 519.08L185.38 518.59L184.76 518.08L184.16 517.54L183.58 516.98L183.02 516.4L182.49 515.8L181.97 515.18L181.49 514.54L181.02 513.89L180.58 513.21L180.17 512.51L179.78 511.8L179.42 511.07L179.09 510.33L178.79 509.57L178.51 508.8L178.27 508.01L178.06 507.21L177.87 506.4L177.72 505.58L177.6 504.74L177.52 503.9L177.46 503.05L177.45 502.18L177.45 440.13L177.46 439.27L177.52 438.41L177.6 437.57L177.72 436.73L177.87 435.91L178.06 435.1L178.27 434.3L178.51 433.51L178.79 432.74L179.09 431.98L179.42 431.24L179.78 430.51L180.17 429.8L180.58 429.1L181.02 428.43L181.49 427.77L181.97 427.13L182.49 426.51L183.02 425.91L183.58 425.33L184.16 424.77L184.76 424.24L185.38 423.72L186.02 423.24L186.68 422.77L187.35 422.33L188.05 421.92L188.76 421.53L189.49 421.17L190.23 420.84L190.99 420.54L191.76 420.26L192.55 420.02L193.35 419.81L194.16 419.62L194.98 419.47L195.82 419.35L196.66 419.27L197.52 419.21L198.38 419.2L330.21 419.2L331.07 419.21L331.92 419.27ZM554.75 419.27L555.6 419.35L556.43 419.47L557.25 419.62L558.07 419.81L558.87 420.02L559.65 420.26L560.42 420.54L561.18 420.84L561.93 421.17L562.66 421.53L563.37 421.92L564.06 422.33L564.74 422.77L565.4 423.24L566.04 423.72L566.66 424.24L567.26 424.77L567.84 425.33L568.39 425.91L568.93 426.51L569.44 427.13L569.93 427.77L570.39 428.43L570.83 429.1L571.24 429.8L571.63 430.51L571.99 431.24L572.32 431.98L572.63 432.74L572.9 433.51L573.15 434.3L573.36 435.1L573.54 435.91L573.69 436.73L573.81 437.57L573.9 438.41L573.95 439.27L573.97 440.13L573.97 502.18L573.95 503.05L573.9 503.9L573.81 504.74L573.69 505.58L573.54 506.4L573.36 507.21L573.15 508.01L572.9 508.8L572.63 509.57L572.32 510.33L571.99 511.07L571.63 511.8L571.24 512.51L570.83 513.21L570.39 513.89L569.93 514.54L569.44 515.18L568.93 515.8L568.39 516.4L567.84 516.98L567.26 517.54L566.66 518.08L566.04 518.59L565.4 519.08L564.74 519.54L564.06 519.98L563.37 520.39L562.66 520.78L561.93 521.14L561.18 521.47L560.42 521.77L559.65 522.05L558.87 522.29L558.07 522.51L557.25 522.69L556.43 522.84L555.6 522.96L554.75 523.05L553.9 523.1L553.04 523.11L421.21 523.11L420.35 523.1L419.49 523.05L418.65 522.96L417.81 522.84L416.99 522.69L416.18 522.51L415.38 522.29L414.59 522.05L413.82 521.77L413.06 521.47L412.32 521.14L411.59 520.78L410.88 520.39L410.18 519.98L409.51 519.54L408.85 519.08L408.21 518.59L407.59 518.08L406.99 517.54L406.41 516.98L405.85 516.4L405.32 515.8L404.8 515.18L404.32 514.54L403.85 513.89L403.41 513.21L403 512.51L402.61 511.8L402.25 511.07L401.92 510.33L401.62 509.57L401.34 508.8L401.1 508.01L400.88 507.21L400.7 506.4L400.55 505.58L400.43 504.74L400.35 503.9L400.29 503.05L400.28 502.18L400.28 440.13L400.29 439.27L400.35 438.41L400.43 437.57L400.55 436.73L400.7 435.91L400.88 435.1L401.1 434.3L401.34 433.51L401.62 432.74L401.92 431.98L402.25 431.24L402.61 430.51L403 429.8L403.41 429.1L403.85 428.43L404.32 427.77L404.8 427.13L405.32 426.51L405.85 425.91L406.41 425.33L406.99 424.77L407.59 424.24L408.21 423.72L408.85 423.24L409.51 422.77L410.18 422.33L410.88 421.92L411.59 421.53L412.32 421.17L413.06 420.84L413.82 420.54L414.59 420.26L415.38 420.02L416.18 419.81L416.99 419.62L417.81 419.47L418.65 419.35L419.49 419.27L420.35 419.21L421.21 419.2L553.04 419.2L553.9 419.21L554.75 419.27ZM220.51 268.11L221.35 268.2L222.19 268.32L223.01 268.47L223.82 268.65L224.62 268.86L225.41 269.11L226.18 269.38L226.94 269.69L227.68 270.02L228.41 270.38L229.12 270.76L229.82 271.18L230.49 271.62L231.15 272.08L231.79 272.57L232.41 273.08L233.01 273.61L233.59 274.17L234.15 274.75L234.68 275.35L235.2 275.97L235.68 276.61L236.15 277.27L236.59 277.95L237 278.64L237.39 279.35L237.75 280.08L238.08 280.83L238.38 281.58L238.66 282.36L238.9 283.14L239.12 283.94L239.3 284.75L239.45 285.58L239.57 286.41L239.65 287.26L239.71 288.11L239.72 288.97L239.72 351.03L239.71 351.89L239.65 352.74L239.57 353.59L239.45 354.42L239.3 355.25L239.12 356.06L238.9 356.86L238.66 357.64L238.38 358.42L238.08 359.17L237.75 359.92L237.39 360.65L237 361.36L236.59 362.05L236.15 362.73L235.68 363.39L235.2 364.03L234.68 364.65L234.15 365.25L233.59 365.83L233.01 366.39L232.41 366.92L231.79 367.43L231.15 367.92L230.49 368.38L229.82 368.82L229.12 369.24L228.41 369.62L227.68 369.98L226.94 370.31L226.18 370.62L225.41 370.89L224.62 371.14L223.82 371.35L223.01 371.53L222.19 371.68L221.35 371.8L220.51 371.89L219.65 371.94L218.79 371.96L86.96 371.96L86.1 371.94L85.25 371.89L84.4 371.8L83.57 371.68L82.75 371.53L81.93 371.35L81.13 371.14L80.35 370.89L79.58 370.62L78.82 370.31L78.07 369.98L77.34 369.62L76.63 369.24L75.94 368.82L75.26 368.38L74.6 367.92L73.96 367.43L73.34 366.92L72.74 366.39L72.16 365.83L71.61 365.25L71.07 364.65L70.56 364.03L70.07 363.39L69.61 362.73L69.17 362.05L68.76 361.36L68.37 360.65L68.01 359.92L67.68 359.17L67.37 358.42L67.1 357.64L66.85 356.86L66.64 356.06L66.46 355.25L66.31 354.42L66.19 353.59L66.1 352.74L66.05 351.89L66.03 351.03L66.03 288.97L66.05 288.11L66.1 287.26L66.19 286.41L66.31 285.58L66.46 284.75L66.64 283.94L66.85 283.14L67.1 282.36L67.37 281.58L67.68 280.83L68.01 280.08L68.37 279.35L68.76 278.64L69.17 277.95L69.61 277.27L70.07 276.61L70.56 275.97L71.07 275.35L71.61 274.75L72.16 274.17L72.74 273.61L73.34 273.08L73.96 272.57L74.6 272.08L75.26 271.62L75.94 271.18L76.63 270.76L77.34 270.38L78.07 270.02L78.82 269.69L79.58 269.38L80.35 269.11L81.13 268.86L81.93 268.65L82.75 268.47L83.57 268.32L84.4 268.2L85.25 268.11L86.1 268.06L86.96 268.04L218.79 268.04L219.65 268.06L220.51 268.11ZM443.34 268.11L444.18 268.2L445.02 268.32L445.84 268.47L446.65 268.65L447.45 268.86L448.24 269.11L449.01 269.38L449.77 269.69L450.51 270.02L451.24 270.38L451.95 270.76L452.65 271.18L453.32 271.62L453.98 272.08L454.62 272.57L455.24 273.08L455.84 273.61L456.42 274.17L456.98 274.75L457.51 275.35L458.03 275.97L458.51 276.61L458.98 277.27L459.42 277.95L459.83 278.64L460.22 279.35L460.58 280.08L460.91 280.83L461.21 281.58L461.49 282.36L461.73 283.14L461.94 283.94L462.13 284.75L462.28 285.58L462.4 286.41L462.48 287.26L462.54 288.11L462.55 288.97L462.55 351.03L462.54 351.89L462.48 352.74L462.4 353.59L462.28 354.42L462.13 355.25L461.94 356.06L461.73 356.86L461.49 357.64L461.21 358.42L460.91 359.17L460.58 359.92L460.22 360.65L459.83 361.36L459.42 362.05L458.98 362.73L458.51 363.39L458.03 364.03L457.51 364.65L456.98 365.25L456.42 365.83L455.84 366.39L455.24 366.92L454.62 367.43L453.98 367.92L453.32 368.38L452.65 368.82L451.95 369.24L451.24 369.62L450.51 369.98L449.77 370.31L449.01 370.62L448.24 370.89L447.45 371.14L446.65 371.35L445.84 371.53L445.02 371.68L444.18 371.8L443.34 371.89L442.48 371.94L441.62 371.96L309.79 371.96L308.93 371.94L308.08 371.89L307.23 371.8L306.4 371.68L305.58 371.53L304.76 371.35L303.96 371.14L303.18 370.89L302.4 370.62L301.65 370.31L300.9 369.98L300.17 369.62L299.46 369.24L298.77 368.82L298.09 368.38L297.43 367.92L296.79 367.43L296.17 366.92L295.57 366.39L294.99 365.83L294.44 365.25L293.9 364.65L293.39 364.03L292.9 363.39L292.44 362.73L292 362.05L291.58 361.36L291.2 360.65L290.84 359.92L290.51 359.17L290.2 358.42L289.93 357.64L289.68 356.86L289.47 356.06L289.29 355.25L289.14 354.42L289.02 353.59L288.93 352.74L288.88 351.89L288.86 351.03L288.86 288.97L288.88 288.11L288.93 287.26L289.02 286.41L289.14 285.58L289.29 284.75L289.47 283.94L289.68 283.14L289.93 282.36L290.2 281.58L290.51 280.83L290.84 280.08L291.2 279.35L291.58 278.64L292 277.95L292.44 277.27L292.9 276.61L293.39 275.97L293.9 275.35L294.44 274.75L294.99 274.17L295.57 273.61L296.17 273.08L296.79 272.57L297.43 272.08L298.09 271.62L298.77 271.18L299.46 270.76L300.17 270.38L300.9 270.02L301.65 269.69L302.4 269.38L303.18 269.11L303.96 268.86L304.76 268.65L305.58 268.47L306.4 268.32L307.23 268.2L308.08 268.11L308.93 268.06L309.79 268.04L441.62 268.04L442.48 268.06L443.34 268.11ZM554.75 116.95L555.6 117.04L556.43 117.16L557.25 117.31L558.07 117.49L558.87 117.71L559.65 117.95L560.42 118.23L561.18 118.53L561.93 118.86L562.66 119.22L563.37 119.61L564.06 120.02L564.74 120.46L565.4 120.92L566.04 121.41L566.66 121.92L567.26 122.46L567.84 123.02L568.39 123.6L568.93 124.2L569.44 124.82L569.93 125.46L570.39 126.11L570.83 126.79L571.24 127.49L571.63 128.2L571.99 128.93L572.32 129.67L572.63 130.43L572.9 131.2L573.15 131.99L573.36 132.79L573.54 133.6L573.69 134.42L573.81 135.26L573.9 136.1L573.95 136.95L573.97 137.82L573.97 199.87L573.95 200.73L573.9 201.59L573.81 202.43L573.69 203.27L573.54 204.09L573.36 204.9L573.15 205.7L572.9 206.49L572.63 207.26L572.32 208.02L571.99 208.76L571.63 209.49L571.24 210.2L570.83 210.9L570.39 211.57L569.93 212.23L569.44 212.87L568.93 213.49L568.39 214.09L567.84 214.67L567.26 215.23L566.66 215.76L566.04 216.28L565.4 216.76L564.74 217.23L564.06 217.67L563.37 218.08L562.66 218.47L561.93 218.83L561.18 219.16L560.42 219.46L559.65 219.74L558.87 219.98L558.07 220.19L557.25 220.38L556.43 220.53L555.6 220.65L554.75 220.73L553.9 220.79L553.04 220.8L421.21 220.8L420.35 220.79L419.49 220.73L418.65 220.65L417.81 220.53L416.99 220.38L416.18 220.19L415.38 219.98L414.59 219.74L413.82 219.46L413.06 219.16L412.32 218.83L411.59 218.47L410.88 218.08L410.18 217.67L409.51 217.23L408.85 216.76L408.21 216.28L407.59 215.76L406.99 215.23L406.41 214.67L405.85 214.09L405.32 213.49L404.8 212.87L404.32 212.23L403.85 211.57L403.41 210.9L403 210.2L402.61 209.49L402.25 208.76L401.92 208.02L401.62 207.26L401.34 206.49L401.1 205.7L400.88 204.9L400.7 204.09L400.55 203.27L400.43 202.43L400.35 201.59L400.29 200.73L400.28 199.87L400.28 137.82L400.29 136.95L400.35 136.1L400.43 135.26L400.55 134.42L400.7 133.6L400.88 132.79L401.1 131.99L401.34 131.2L401.62 130.43L401.92 129.67L402.25 128.93L402.61 128.2L403 127.49L403.41 126.79L403.85 126.11L404.32 125.46L404.8 124.82L405.32 124.2L405.85 123.6L406.41 123.02L406.99 122.46L407.59 121.92L408.21 121.41L408.85 120.92L409.51 120.46L410.18 120.02L410.88 119.61L411.59 119.22L412.32 118.86L413.06 118.53L413.82 118.23L414.59 117.95L415.38 117.71L416.18 117.49L416.99 117.31L417.81 117.16L418.65 117.04L419.49 116.95L420.35 116.9L421.21 116.89L553.04 116.89L553.9 116.9L554.75 116.95Z" id="bAj9WE6DS"></path><linearGradient id="gradientb1U64i1vP" gradientUnits="userSpaceOnUse" x1="309.65" y1="177.36" x2="557.52" y2="504.86"><stop style="stop-color: #b721ff;stop-opacity: 1" offset="0%"></stop><stop style="stop-color: #21d4fd;stop-opacity: 1" offset="100%"></stop></linearGradient></defs><g><g><g><use xlink:href="#bAj9WE6DS" opacity="1" fill="url(#gradientb1U64i1vP)"></use></g></g></g></svg>